# xmcd
# 
# Track frame offsets:
#     150
#     23150
#     37933
#     55816
#     72985
#     90431
#     107682
#     125953
#     142811
#     158482
#     184338
#     198972
# 
# Disc length: 2975
# 
# Revision: 8
# Processed by: cddbd v1.5.2PL0 Copyright (c) Steve Scherf et al.
# Submitted via: fre:ac v1.0.31
# 
DISCID=9b0b9d0c
DTITLE=Lynyrd Skynyrd - God and Guns
DYEAR=2009
DGENRE=Rock/Pop
TTITLE0=Still Unbroken
TTITLE1=Simple Life
TTITLE2=Little Thing Called You
TTITLE3=Southern Ways
TTITLE4=Skynyrd Nation
TTITLE5=Unwrite That Song
TTITLE6=Floyd
TTITLE7=That Ain't My America
TTITLE8=Comin' Back For More
TTITLE9=God and Guns
TTITLE10=Storm
TTITLE11=Gifted Hands
EXTD=
EXTT0=
EXTT1=
EXTT2=
EXTT3=
EXTT4=
EXTT5=
EXTT6=
EXTT7=
EXTT8=
EXTT9=
EXTT10=
EXTT11=
PLAYORDER=
